<?xml version="1.0" encoding="UTF-8"?>
<svg width="48px" height="44px" viewBox="0 0 48 44" version="1.1" xmlns="http://www.w3.org/2000/svg" xmlns:xlink="http://www.w3.org/1999/xlink">
    <!-- Generator: Sketch 55.1 (78136) - https://sketchapp.com -->
    <title>logo</title>
    <desc>Created with Sketch.</desc>
    <g id="页面1" stroke="none" stroke-width="1" fill="none" fill-rule="evenodd">
        <g id="登录-" transform="translate(-299.000000, -179.000000)">
            <g id="公司" transform="translate(299.000000, 176.000000)">
                <g id="logo">
                    <rect id="矩形" x="0" y="0" width="48" height="48"></rect>
                    <path d="M24.78,4.692 C24.474615,5.60530087 24.6907573,6.61243199 25.344,7.32 C24.3603508,7.51568896 23.4182835,7.8811461 22.56,8.4 C20.2812265,9.93375932 18.7970493,12.396446 18.5053988,15.1277765 C18.2137482,17.859107 19.1444614,20.5796548 21.048,22.56 C24.288,25.812 29.076,24.348 31.188,22.968 C34.248,21.672 37.044,13.368 29.364,10.836 C29.364,10.836 21.228,10.14 23.82,18.12 C25.02,21.036 29.4,19.848 29.22,17.904 C30.1101996,17.2260522 30.4307175,16.0327395 30,15 C32.928,16.044 32.316,19.512 30,21.24 C28.4031909,22.4074958 26.3270893,22.6958108 24.4725738,22.0076117 C22.6180583,21.3194126 21.2326297,19.7465454 20.784,17.82 C20.784,17.82 19.2,8.832 28.548,8.4 C37.896,7.968 40.464,22.968 29.628,26.4 C26.7662977,27.1952284 23.7174938,26.9747307 21,25.776 C16.14,23.556 14.076,16.176 17.016,10.536 C18.6231769,7.54489848 21.4609918,5.40886164 24.78,4.692 Z" id="路径" fill="#EB7500"></path>
                    <path d="M27.6,3.312 C28.6157004,3.33179015 29.4249753,4.16772496 29.4118456,5.1835333 C29.398716,6.19934163 28.5681057,7.01408042 27.5522331,7.00761185 C26.5363605,7.00114329 25.7161928,6.17589316 25.716,5.16 C25.7159058,4.66357828 25.9155392,4.18799314 26.269932,3.84037222 C26.6243247,3.4927513 27.1036725,3.30232944 27.6,3.312 Z" id="路径" fill="#AE4283"></path>
                    <path d="M27.264,13.908 C28.0114462,13.908 28.6852941,14.3582507 28.9713294,15.048801 C29.2573647,15.7393513 29.0992576,16.534209 28.5707333,17.0627333 C28.042209,17.5912576 27.2473513,17.7493647 26.556801,17.4633294 C25.8662507,17.1772941 25.416,16.5034462 25.416,15.756 C25.416,14.7353778 26.2433778,13.908 27.264,13.908 Z" id="路径" fill="#AE4283"></path>
                    <polygon id="路径" fill="#2A87CD" points="17.388 29.052 18.648 35.556 19.848 29.052 23.148 29.052 20.58 39.54 17.16 39.54 15.972 33.444 15.912 33.444 14.712 39.54 11.352 39.54 8.724 29.052 12.096 29.052 13.236 35.556 13.284 35.556 14.544 29.052"></polygon>
                    <path d="M31.524,35.844 C31.396,33.444 29.988,32.168 27.3,32.016 C24.612,32.136 23.208,33.412 23.088,35.844 C23.208,38.244 24.612,39.48 27.3,39.552 C29.988,39.472 31.396,38.236 31.524,35.844 Z M25.596,35.844 C25.596,34.224 26.172,33.444 27.3,33.444 C28.428,33.444 29.112,34.248 29.064,35.844 C29.016,37.44 28.476,38.244 27.3,38.244 C26.124,38.244 25.596,37.416 25.596,35.844 Z" id="形状" fill="#2A87CD"></path>
                    <path d="M32.604,32.196 C32.6105297,32.5175168 32.6385925,32.838235 32.688,33.156 L32.688,39.6 L35.472,39.6 L35.472,35.664 C35.5438013,35.2880858 35.6690732,34.9243932 35.844,34.584 C36.2443049,34.2986247 36.7112459,34.1209392 37.2,34.068 L38.4,34.068 L38.4,32.136 C37.1518425,31.9395536 35.9089849,32.5182889 35.256,33.6 L35.184,33.6 L35.184,32.196 L32.604,32.196 Z" id="路径" fill="#2A87CD"></path>
                    <path d="M41.892,35.784 C41.892,34.152 42.444,33.324 43.656,33.324 C44.868,33.324 45.288,34.224 45.372,35.784 C45.456,37.344 44.712,38.1 43.656,38.184 C42.6,38.268 41.844,37.392 41.892,35.784 Z M45.372,32.928 L45.372,32.928 C44.8269639,32.2933204 44.0364711,31.9220945 43.2,31.908 C40.8,32.016 39.6,33.312 39.408,35.784 C39.576,38.184 40.764,39.468 43.008,39.552 C43.9906381,39.6406207 44.9417881,39.1788973 45.48,38.352 L45.48,38.352 C45.4621734,38.5235381 45.4621734,38.6964619 45.48,38.868 L45.48,39.384 L47.88,39.384 C47.88,38.928 47.88,38.436 47.88,37.908 L47.88,28.884 L45.48,28.884 L45.372,32.928 Z" id="形状" fill="#2A87CD"></path>
                    <path d="M3.12,37.5 C2.256,38.916 1.716,40.776 2.796,41.808 C4.236,43.2 6.528,40.488 6.576,40.8 C6.04187829,42.3649287 4.54440021,43.39414 2.892,43.332 C0.192,43.332 -0.42,40.38 1.2,37.128 C3.492,33.372 7.2,32.94 8.004,33.732 C10.656,36.492 4.416,37.536 3.12,37.5 Z" id="形状" fill="#EB7500"></path>
                    <path d="M18.264,45.24 C18.264,45.312 18.264,45.372 18.264,45.408 C18.2590619,45.4357823 18.2590619,45.4642177 18.264,45.492 C18.2611109,45.5681104 18.3034842,45.6387326 18.372,45.672 C18.5025655,45.6995209 18.6374345,45.6995209 18.768,45.672 L18.768,45.744 L17.052,45.744 L17.052,45.672 L17.124,45.672 C17.2599412,45.6814417 17.3960825,45.6566887 17.52,45.6 C17.6153835,45.504312 17.6819188,45.3837168 17.712,45.252 L18.6,42.288 L18.18,42.288 C17.9449611,42.278415 17.7132195,42.3458307 17.52,42.48 C17.3318061,42.6215163 17.1931954,42.8189316 17.124,43.044 L17.04,43.044 L17.328,42.12 L20.4,42.12 L20.148,43.044 L20.076,43.044 C20.0805206,42.9760751 20.0805206,42.9079249 20.076,42.84 C20.081398,42.7961656 20.081398,42.7518344 20.076,42.708 C20.0828865,42.5856577 20.0344215,42.4666983 19.944,42.384 C19.8076256,42.3118297 19.654008,42.2786151 19.5,42.288 L19.044,42.288 L18.18,45.192 L18.264,45.24 Z M20.196,44.568 C20.5263511,44.5584177 20.8470256,44.4543026 21.12,44.268 C21.3333331,44.1511608 21.4732535,43.9345098 21.492,43.692 C21.4996235,43.6210524 21.4672727,43.5517293 21.408,43.512 C21.3427469,43.484666 21.2692531,43.484666 21.204,43.512 C20.9783569,43.5265557 20.7692729,43.6354536 20.628,43.812 C20.4209468,44.0456294 20.2728204,44.3254238 20.196,44.628 L20.196,44.568 Z M21.504,45.24 C21.3819446,45.3543713 21.2446409,45.4512915 21.096,45.528 C20.9714841,45.5854049 20.8369806,45.6180118 20.7,45.624 C20.5434101,45.6307036 20.3926137,45.5641758 20.292,45.444 C20.1788649,45.3060549 20.1230211,45.1299324 20.136,44.952 L20.136,44.796 L20.136,44.688 C20.5543092,44.6751191 20.9643912,44.5684978 21.336,44.376 C21.5933885,44.2662802 21.7657152,44.0194338 21.78,43.74 C21.7910641,43.6238655 21.7410969,43.5103036 21.648,43.44 C21.5445344,43.3527648 21.4109385,43.3096693 21.276,43.32 C21.0931562,43.3192516 20.9125593,43.3602964 20.748,43.44 C20.5644972,43.5256244 20.3978546,43.6434936 20.256,43.788 C20.0597598,43.9578211 19.9004718,44.1661208 19.788,44.4 C19.6854775,44.6049096 19.6320677,44.8308738 19.632,45.06 C19.6234168,45.2747125 19.696283,45.4847386 19.836,45.648 C19.9903008,45.7958698 20.1985165,45.8739507 20.412,45.864 C20.6166757,45.8635512 20.8182786,45.814179 21,45.72 C21.1996938,45.6126916 21.3785245,45.4704399 21.528,45.3 L21.456,45.3 L21.504,45.24 Z M24.06,45.24 L24.132,45.24 C23.995711,45.4160827 23.8291007,45.5664383 23.64,45.684 C23.4630931,45.7794903 23.2650309,45.8290058 23.064,45.828 C22.8490078,45.8333554 22.6410813,45.7510511 22.488,45.6 C22.3394664,45.4412625 22.2615445,45.2291416 22.272,45.012 C22.2779731,44.7797493 22.3310455,44.5511301 22.428,44.34 C22.527387,44.1179525 22.6701887,43.9180301 22.848,43.752 C22.9854109,43.6076665 23.1480948,43.4897207 23.328,43.404 C23.4861011,43.3301698 23.6575914,43.2893387 23.832,43.284 C23.9828503,43.2795909 24.1307937,43.3260874 24.252,43.416 C24.3561324,43.4845489 24.4156403,43.6035647 24.408,43.728 C24.4155181,43.7975539 24.393784,43.867103 24.348,43.92 C24.2857281,43.941033 24.2182719,43.941033 24.156,43.92 C24.1058157,43.9394334 24.0501843,43.9394334 24,43.92 C23.9614495,43.8923294 23.9390062,43.8474427 23.94,43.8 C23.9432432,43.744159 23.9692731,43.6920992 24.012,43.656 C24.0486517,43.6250984 24.0739817,43.5828817 24.084,43.536 C24.0831216,43.4922846 24.0606528,43.4518408 24.024,43.428 C23.9647955,43.4141828 23.9032045,43.4141828 23.844,43.428 C23.7085555,43.4283753 23.5757831,43.4657176 23.46,43.536 C23.3237443,43.6298022 23.2058022,43.7477443 23.112,43.884 C22.8742077,44.2086703 22.7403303,44.5977513 22.728,45 C22.7218308,45.1660599 22.777408,45.3285163 22.884,45.456 C22.9842735,45.5683475 23.1295305,45.6299716 23.28,45.624 C23.4098732,45.6220628 23.5374077,45.5891507 23.652,45.528 C23.805189,45.4486439 23.9432793,45.3430454 24.06,45.216 L24.06,45.24 Z M24.768,45.816 L25.668,42.768 L25.668,42.708 C25.6970345,42.6264111 25.7171517,42.5419189 25.728,42.456 C25.728187,42.4025737 25.7010201,42.3527678 25.656,42.324 C25.5768508,42.3074998 25.4951492,42.3074998 25.416,42.324 L25.416,42.324 L25.416,42.252 L25.872,42.192 L26.28,42 L25.536,44.484 C25.7601767,44.1474609 26.0218539,43.837474 26.316,43.56 C26.4732831,43.392804 26.6871694,43.2901386 26.916,43.272 C27.0020407,43.2664866 27.0872028,43.2920353 27.156,43.344 C27.2055978,43.4000599 27.2314216,43.4732273 27.228,43.548 C27.2332425,43.6078855 27.2332425,43.6681145 27.228,43.728 C27.228,43.8 27.228,43.872 27.168,43.968 L26.808,45.168 C26.808,45.168 26.808,45.168 26.808,45.168 C26.7941028,45.2473965 26.7941028,45.3286035 26.808,45.408 C26.7951,45.4345142 26.7951,45.4654858 26.808,45.492 L26.868,45.492 C26.9345176,45.4895223 26.9981233,45.46408 27.048,45.42 L27.3,45.132 L27.384,45.132 C27.2655027,45.2989542 27.1241187,45.4484174 26.964,45.576 C26.8658037,45.6572981 26.7434112,45.7037228 26.616,45.708 C26.5446874,45.7123011 26.4749006,45.686131 26.424,45.636 C26.3756167,45.5895174 26.3531829,45.522216 26.364,45.456 C26.3588663,45.4041267 26.3588663,45.3518733 26.364,45.3 C26.364,45.228 26.364,45.156 26.364,45.084 L26.724,43.884 C26.724,43.8 26.724,43.74 26.784,43.68 C26.7890667,43.6321337 26.7890667,43.5838663 26.784,43.536 C26.7877622,43.4967758 26.7738041,43.4579219 26.7459411,43.4300589 C26.7180781,43.4021959 26.6792242,43.3882378 26.64,43.392 C26.436,43.392 26.172,43.608 25.848,44.052 C25.5193513,44.5879294 25.2991829,45.1831997 25.2,45.804 L24.768,45.816 Z M27.888,45.816 L28.428,44.04 L28.5,43.824 C28.5051532,43.7922075 28.5051532,43.7597925 28.5,43.728 C28.500923,43.6775225 28.4729734,43.6309397 28.428,43.608 C28.3488508,43.5914998 28.2671492,43.5914998 28.188,43.608 L28.188,43.608 L28.188,43.524 C28.4880007,43.4981314 28.7851453,43.4459303 29.076,43.368 L28.704,44.568 C28.9160353,44.2329743 29.1701018,43.9264814 29.46,43.656 C29.5952649,43.4844047 29.7862998,43.3655385 30,43.32 C30.0862911,43.312157 30.1722761,43.3379525 30.24,43.392 C30.2978596,43.4434796 30.3288348,43.518705 30.324,43.596 C30.3285063,43.6559154 30.3285063,43.7160846 30.324,43.776 C30.3123216,43.8578534 30.2922148,43.9382807 30.264,44.016 L29.916,45.216 L29.916,45.216 C29.9021028,45.2953965 29.9021028,45.3766035 29.916,45.456 C29.9088871,45.4835483 29.9088871,45.5124517 29.916,45.54 L30,45.6 C30.0665176,45.5975223 30.1301233,45.57208 30.18,45.528 C30.2761627,45.4398148 30.3644938,45.3434536 30.444,45.24 L30.516,45.24 C30.4011835,45.4061529 30.2638752,45.5555767 30.108,45.684 C30.0044368,45.7639869 29.8787219,45.8100824 29.748,45.816 C29.6766874,45.8203011 29.6069006,45.794131 29.556,45.744 C29.5338407,45.686046 29.5338407,45.621954 29.556,45.564 C29.5519214,45.51208 29.5519214,45.45992 29.556,45.408 C29.556,45.336 29.556,45.264 29.556,45.192 L29.928,43.992 C29.928,43.908 29.928,43.848 29.928,43.788 C29.9330667,43.7401337 29.9330667,43.6918663 29.928,43.644 C29.9362052,43.6084675 29.9362052,43.5715325 29.928,43.536 C29.8933633,43.5219888 29.8546367,43.5219888 29.82,43.536 C29.604,43.536 29.34,43.752 29.016,44.196 C28.6769044,44.6686852 28.4324162,45.2024846 28.296,45.768 L27.888,45.816 Z M32.58,43.4159882 C32.4451387,43.4194331 32.3148622,43.4656602 32.208,43.548 C32.068986,43.6530884 31.9509407,43.7833453 31.86,43.932 C31.7335126,44.1288287 31.6364862,44.3430953 31.572,44.568 C31.4960364,44.7674445 31.4554283,44.9786064 31.452,45.192 C31.4493535,45.3333359 31.4913447,45.4719071 31.572,45.588 C31.6524093,45.6828708 31.7716979,45.735888 31.896,45.732 C32.0296514,45.7328715 32.1600513,45.690807 32.268,45.612 C32.400316,45.5033082 32.5138341,45.3735732 32.604,45.228 C32.7301443,45.0293474 32.8309277,44.8156866 32.904,44.592 C32.9701205,44.386229 33.0064883,44.1720631 33.012,43.956 C33.0205649,43.8176006 32.9778448,43.6808964 32.892,43.572 C32.8189818,43.4730379 32.7029806,43.4150373 32.58,43.4159882 L32.58,43.4159882 Z M32.58,43.308 C32.8175364,43.2974076 33.0484343,43.3879803 33.2154172,43.5572506 C33.3824001,43.726521 33.4698231,43.9586297 33.456,44.196 C33.4558423,44.4212814 33.4023863,44.6433292 33.3,44.844 C33.200613,45.0660475 33.0578113,45.2659699 32.88,45.432 C32.7487036,45.5603901 32.5938757,45.6622505 32.424,45.732 C32.2694878,45.8024027 32.1017938,45.8392135 31.932,45.84 C31.6965589,45.847523 31.4677759,45.7611898 31.296,45.6 C31.1329616,45.4245405 31.0465874,45.1913302 31.056,44.952 C31.0648374,44.727837 31.1178513,44.5076251 31.212,44.304 C31.323141,44.0858579 31.4690488,43.8872611 31.644,43.716 C31.774179,43.5918705 31.9242624,43.4904628 32.088,43.416 C32.2425122,43.3455973 32.4102062,43.3087865 32.58,43.308 L32.58,43.308 Z M34.8,42.756 L34.8,42.756 C34.8071293,42.6681444 34.8071293,42.5798556 34.8,42.492 C34.805854,42.4372948 34.7771635,42.3846956 34.728,42.36 C34.6489682,42.3423982 34.5670318,42.3423982 34.488,42.36 L34.488,42.36 L34.488,42.288 L34.944,42.228 L35.376,42.132 L34.44,45.288 C34.4379391,45.3119558 34.4379391,45.3360442 34.44,45.36 C34.4279155,45.4314929 34.4279155,45.5045071 34.44,45.576 C34.4271,45.6025142 34.4271,45.6334858 34.44,45.66 L34.5,45.66 C34.5665176,45.6575223 34.6301233,45.63208 34.68,45.588 C34.7750037,45.5022148 34.8595851,45.4055504 34.932,45.3 L35.016,45.3 C34.8975027,45.4669542 34.7561187,45.6164174 34.596,45.744 C34.4978037,45.8252981 34.3754112,45.8717228 34.248,45.876 C34.1766874,45.8803011 34.1069006,45.854131 34.056,45.804 C34.0133135,45.7541081 33.9917859,45.6895254 33.996,45.624 C33.9867933,45.5724075 33.9867933,45.5195925 33.996,45.468 C33.9904054,45.3961087 33.9904054,45.3238913 33.996,45.252 L34.8,42.756 Z M37.14,43.428 C37.0014509,43.4313503 36.8673262,43.4774556 36.756,43.56 C36.6209087,43.6657951 36.5069264,43.7960606 36.42,43.944 C36.2940747,44.1427731 36.1933046,44.3564058 36.12,44.58 C36.053195,44.7814783 36.016795,44.9917892 36.012,45.204 C36.0037786,45.3460532 36.0463094,45.486405 36.132,45.6 C36.2075231,45.6944511 36.3231272,45.7478068 36.444,45.744 C36.5776514,45.7448715 36.7080513,45.702807 36.816,45.624 C36.9685838,45.5232028 37.0992028,45.3925838 37.2,45.24 C37.3301001,45.0418317 37.434913,44.8281747 37.512,44.604 C37.5781205,44.398229 37.6144883,44.1840631 37.62,43.968 C37.6285649,43.8296006 37.5858448,43.6928964 37.5,43.584 C37.4235328,43.4892286 37.3096974,43.4323109 37.188,43.428 L37.14,43.428 Z M37.14,43.32 C37.3817587,43.3095494 37.6168201,43.4009622 37.788,43.572 C37.9515413,43.7423013 38.0382625,43.9721124 38.028,44.208 C38.0278423,44.4332814 37.9743863,44.6553292 37.872,44.856 C37.7683287,45.0755624 37.626071,45.2747232 37.452,45.444 C37.3185046,45.569633 37.1642143,45.6711397 36.996,45.744 C36.8414878,45.8144027 36.6737938,45.8512135 36.504,45.852 C36.2681124,45.8622625 36.0383013,45.7755413 35.868,45.612 C35.7049616,45.4365405 35.6185874,45.2033302 35.628,44.964 C35.6307458,44.7390342 35.6840618,44.5175676 35.784,44.316 C35.8865087,44.0957576 36.0289086,43.8963977 36.204,43.728 C36.3384959,43.6036395 36.4925582,43.5022827 36.66,43.428 C36.8108235,43.3592343 36.9742581,43.3224616 37.14,43.32 L37.14,43.32 Z M39.06,45.72 C38.9010074,45.7848455 38.7577827,45.8830568 38.64,46.008 C38.5570402,46.1052211 38.5103867,46.2282168 38.508,46.356 C38.5043807,46.5108171 38.5816869,46.6563345 38.712,46.74 C38.8854731,46.8440545 39.0859687,46.8941784 39.288,46.884 C39.5039596,46.8884071 39.7165572,46.830047 39.9,46.716 C40.0489079,46.6387111 40.1450522,46.4876271 40.152,46.32 C40.1513354,46.1755642 40.0671242,46.044569 39.936,45.984 C39.6574564,45.8563288 39.3627049,45.7674996 39.06,45.72 Z M39.312,44.904 C39.1597022,44.8717883 39.0236916,44.7867816 38.928,44.664 C38.8309285,44.5506419 38.7795875,44.4051759 38.784,44.256 C38.7849335,44.0045916 38.9051766,43.7685588 39.108,43.62 C39.3270589,43.4384408 39.603502,43.3406225 39.888,43.344 C39.9715953,43.3323388 40.0564047,43.3323388 40.14,43.344 C40.2319808,43.3693761 40.3206067,43.4056322 40.404,43.452 L41.052,43.452 L41.052,43.692 L40.632,43.692 C40.632,43.692 40.632,43.776 40.632,43.824 C40.6385771,43.8677542 40.6385771,43.9122458 40.632,43.956 C40.6377402,44.2162427 40.5225046,44.4644424 40.32,44.628 C40.0961066,44.8079561 39.8150884,44.9016288 39.528,44.892 L39.528,44.892 L39.204,45.048 C39.152216,45.0793751 39.1170447,45.132132 39.108,45.192 C39.108,45.264 39.252,45.336 39.528,45.396 L39.744,45.396 C39.9585122,45.4350034 40.160315,45.5256088 40.332,45.66 C40.4512103,45.7655953 40.5135004,45.9213204 40.5,46.08 C40.5041565,46.329037 40.3702289,46.5599466 40.152,46.68 C39.8820924,46.8455798 39.5681871,46.9251025 39.252,46.908 C39.0009553,46.9210637 38.7513385,46.8628197 38.532,46.74 C38.3635246,46.6666633 38.2516985,46.5035837 38.244,46.32 C38.2476991,46.1724696 38.3129723,46.0332201 38.424,45.936 C38.5902866,45.791025 38.7813402,45.6772058 38.988,45.6 C38.9175655,45.5713583 38.8526099,45.5307611 38.796,45.48 C38.7587232,45.4317617 38.737715,45.3729389 38.736,45.312 C38.7396289,45.2094279 38.7934726,45.1152015 38.88,45.06 C39.0253066,44.9534806 39.1876005,44.8723337 39.36,44.82 L39.312,44.904 Z M39.564,44.832 C39.7647728,44.8206578 39.9458256,44.7074997 40.044,44.532 C40.1845625,44.323232 40.2559276,44.0755533 40.248,43.824 C40.2511738,43.7233028 40.2169787,43.624992 40.152,43.548 C40.0813986,43.480326 39.98558,43.4454829 39.888,43.452 C39.6828559,43.4592578 39.494403,43.5669452 39.384,43.74 C39.248196,43.9420305 39.1770479,44.1805861 39.18,44.424 C39.1723725,44.5347156 39.2115533,44.6435512 39.288,44.724 C39.359306,44.7993352 39.4605019,44.8389335 39.564,44.832 L39.564,44.832 Z M42.084,42.672 C42.0849017,42.6086954 42.1107806,42.5483113 42.156,42.504 C42.2573936,42.4094956 42.4146064,42.4094956 42.516,42.504 C42.5646036,42.5470826 42.594696,42.6072676 42.6,42.672 C42.5972216,42.7340798 42.5662987,42.7915081 42.516,42.828 C42.468794,42.8762436 42.4034551,42.9023792 42.336,42.9 C42.2694824,42.8975223 42.2058767,42.87208 42.156,42.828 C42.1087745,42.7902385 42.0820966,42.7324364 42.084,42.672 L42.084,42.672 Z M41.82,44.052 L41.82,43.86 C41.8245602,43.82013 41.8245602,43.77987 41.82,43.74 C41.8242221,43.6886975 41.7952538,43.6404169 41.748,43.62 C41.6688508,43.6034998 41.5871492,43.6034998 41.508,43.62 L41.508,43.62 L41.508,43.536 C41.65577,43.5476692 41.80423,43.5476692 41.952,43.536 C42.1101499,43.5155605 42.266575,43.4834733 42.42,43.44 L41.844,45.324 C41.8469049,45.3839648 41.8469049,45.4440352 41.844,45.504 C41.8392142,45.5398409 41.8392142,45.5761591 41.844,45.612 C41.8311,45.6385142 41.8311,45.6694858 41.844,45.696 L41.844,45.696 C41.9105176,45.6935223 41.9741233,45.66808 42.024,45.624 C42.1169681,45.5326752 42.2050888,45.4365435 42.288,45.336 L42.36,45.336 C42.2415027,45.5029542 42.1001187,45.6524174 41.94,45.78 C41.8364368,45.8599869 41.7107219,45.9060824 41.58,45.912 C41.5086874,45.9163011 41.4389006,45.890131 41.388,45.84 C41.3384162,45.7936996 41.3120258,45.7277236 41.316,45.66 C41.3119214,45.60808 41.3119214,45.55592 41.316,45.504 C41.3304037,45.4305614 41.3504634,45.3583462 41.376,45.288 L41.748,44.088 L41.82,44.052 Z M43.5,44.592 C43.8307035,44.5844718 44.1519471,44.4801719 44.424,44.292 C44.6405358,44.1786367 44.7817392,43.9599992 44.796,43.716 C44.8017859,43.6479945 44.7750901,43.5812551 44.724,43.536 C44.6547266,43.5079775 44.5772734,43.5079775 44.508,43.536 C44.2823569,43.5505557 44.0732729,43.6594536 43.932,43.836 C43.7338567,44.0756916 43.5868428,44.3533845 43.5,44.652 L43.5,44.592 Z M44.808,45.264 L44.88,45.264 C44.7330876,45.4371074 44.5537164,45.579789 44.352,45.684 C44.1750931,45.7794903 43.9770309,45.8290058 43.776,45.828 C43.5607583,45.8347718 43.3522938,45.7522546 43.2,45.6 C43.0514664,45.4412625 42.9735445,45.2291416 42.984,45.012 C42.9840677,44.7828738 43.0374775,44.5569096 43.14,44.352 C43.2524718,44.1181208 43.4117598,43.9098211 43.608,43.74 C43.7519581,43.5925502 43.923109,43.4743746 44.112,43.392 C44.2765593,43.3122964 44.4571562,43.2712516 44.64,43.272 C44.7713887,43.2608543 44.9015765,43.3042503 45,43.392 C45.0957996,43.4610838 45.1500199,43.5740428 45.144,43.692 C45.1247798,43.9732744 44.9482251,44.2195216 44.688,44.328 C44.3169921,44.5220603 43.9065454,44.6287764 43.488,44.64 C43.4823798,44.6757806 43.4823798,44.7122194 43.488,44.748 C43.4815985,44.799803 43.4815985,44.852197 43.488,44.904 C43.4750211,45.0819324 43.5308649,45.2580549 43.644,45.396 C43.7446137,45.5161758 43.8954101,45.5827036 44.052,45.576 C44.1893487,45.572705 44.3243901,45.5399677 44.448,45.48 C44.5966409,45.4032915 44.7339446,45.3063713 44.856,45.192 L44.808,45.264 Z M45.468,45.864 L45.612,45.06 L45.684,45.06 C45.6917169,45.2479975 45.7589494,45.4286849 45.876,45.576 C46.0914953,45.7911392 46.4405047,45.7911392 46.656,45.576 C46.7443473,45.4869268 46.7920941,45.3653895 46.788,45.24 C46.747687,45.0197813 46.6384283,44.8180729 46.476,44.664 L46.476,44.664 L46.476,44.664 C46.2746893,44.4774808 46.1433931,44.2275945 46.104,43.956 C46.1001371,43.7939501 46.170923,43.6391059 46.296,43.536 C46.4386648,43.4218261 46.6173638,43.3622597 46.8,43.368 C46.9114458,43.3522424 47.0245542,43.3522424 47.136,43.368 C47.2004564,43.3985122 47.269288,43.4187568 47.34,43.428 L47.448,43.428 C47.4563482,43.4006222 47.4563482,43.3713778 47.448,43.344 L47.508,43.344 L47.412,44.1 L47.34,44.1 L47.34,44.028 C47.3449134,43.8765669 47.2886916,43.7295253 47.184,43.62 C47.0859025,43.5101444 46.9471908,43.4451232 46.8,43.44 C46.7007106,43.4322991 46.6021648,43.4622913 46.524,43.524 C46.4514148,43.5819115 46.4112047,43.6712673 46.416,43.764 C46.4533116,43.9750713 46.5637743,44.1662568 46.728,44.304 L46.728,44.304 C46.8693203,44.4454114 46.9941203,44.6024178 47.1,44.772 C47.1597466,44.8828278 47.1926295,45.0061385 47.196,45.132 C47.1979419,45.3280079 47.1093928,45.513961 46.956,45.636 C46.7742682,45.7760711 46.5493003,45.8482306 46.32,45.84 C46.2046745,45.8356476 46.0909828,45.8112851 45.984,45.768 L45.744,45.768 C45.712942,45.7570193 45.679058,45.7570193 45.648,45.768 C45.648,45.768 45.588,45.768 45.576,45.852 L45.468,45.864 Z" id="形状" fill="#2A87CD"></path>
                </g>
            </g>
        </g>
    </g>
</svg>